<svg version="1.1" id="Layer_1" xmlns="http://www.w3.org/2000/svg" xmlns:xlink="http://www.w3.org/1999/xlink" x="0px" y="0px"
	 width="100%" viewBox="0 0 476 124" enable-background="new 0 0 476 124" xml:space="preserve">
<path fill="#000000" opacity="1.000000" stroke="none" 
	d="
M349.000000,125.000000 
	C232.714920,125.000000 116.929855,125.000000 1.072391,125.000000 
	C1.072391,83.732254 1.072391,42.464352 1.072391,1.098222 
	C159.666641,1.098222 318.333313,1.098222 476.973328,1.098222 
	C476.973328,42.403358 476.973328,83.701691 476.973328,125.000000 
	C434.464417,125.000000 391.982208,125.000000 349.000000,125.000000 
M79.018448,39.155098 
	C79.012154,49.257740 78.957840,59.360752 79.035027,69.462753 
	C79.053177,71.837578 79.515244,74.208992 79.095863,77.065346 
	C79.095863,82.984329 79.095863,88.903313 79.095863,94.998016 
	C82.249458,94.998016 84.926117,94.734993 87.530899,95.055771 
	C92.170082,95.627068 93.081070,93.182053 93.031166,89.298325 
	C92.922180,80.815575 92.998154,72.330452 92.998466,63.846302 
	C92.998596,60.360241 92.998489,56.874176 92.998489,52.471489 
	C102.119446,66.388481 110.637718,79.248085 118.996254,92.210693 
	C122.126205,97.064697 126.768204,94.501053 130.721832,94.666504 
	C131.395676,94.694702 132.878174,90.746971 132.898773,88.625488 
	C133.074844,70.494400 133.023178,52.360790 132.958481,34.228230 
	C132.952896,32.666382 132.520020,29.811781 132.020432,29.751387 
	C128.133408,29.281496 124.175011,29.249985 120.264847,29.497135 
	C120.027008,29.512165 120.012413,33.059177 119.133644,35.393921 
	C119.139839,43.470455 119.146034,51.546986 119.009148,60.445927 
	C119.009148,63.490608 119.009148,66.535294 119.009148,70.568619 
	C117.870621,69.333450 117.380135,68.932281 117.051826,68.425964 
	C109.194153,56.307796 101.369827,44.167946 93.484352,32.067940 
	C92.741348,30.927826 91.808708,29.454660 90.666885,29.104042 
	C82.283623,26.529779 78.718025,29.298504 79.249390,37.832630 
	C79.249390,37.832630 79.353004,38.006947 79.018448,39.155098 
M114.918533,96.456985 
	C114.582672,96.627304 114.246811,96.797623 113.443588,97.040718 
	C113.443588,97.040718 112.992607,97.183342 112.317253,96.843384 
	C105.550316,96.949097 98.783371,97.054817 91.086227,97.021889 
	C81.097260,97.003090 71.108292,96.984291 60.649380,96.213905 
	C56.554783,96.139153 52.456188,95.917046 48.366631,96.028046 
	C43.575981,96.158073 38.793205,96.578079 33.404072,96.860748 
	C32.925259,96.506134 32.446445,96.151520 32.034248,95.416199 
	C32.034248,95.416199 32.076080,95.030510 32.999691,94.997299 
	C40.072479,94.666069 47.192497,93.720360 54.198433,94.258865 
	C57.783913,94.534470 59.912140,93.688240 62.089230,91.425385 
	C63.588432,89.867134 65.009064,88.189583 66.703896,86.873161 
	C69.456856,84.734894 70.144295,82.116463 70.081398,78.698730 
	C69.867065,67.052681 70.029274,55.400066 69.958351,43.750500 
	C69.949913,42.364998 69.823364,40.619400 69.016373,39.657494 
	C63.312592,32.858776 57.368519,26.323092 46.378639,28.845846 
	C46.411922,27.942801 46.583851,26.272165 46.458122,26.249454 
	C43.632500,25.739079 40.732353,25.003099 37.947041,25.289560 
	C37.091198,25.377583 36.532604,28.355757 35.010540,30.004423 
	C29.449257,28.071972 24.526249,28.334833 20.748920,33.668072 
	C19.520824,35.402027 17.520702,36.586304 16.275627,38.311993 
	C15.216803,39.779537 14.122313,41.655060 14.097358,43.365456 
	C13.915665,55.818916 13.948389,68.276787 14.071554,80.731689 
	C14.085944,82.186897 14.694263,83.977371 15.664186,85.019730 
	C18.923264,88.522217 22.470524,91.756538 26.118216,95.579948 
	C26.411991,95.768890 26.705765,95.957832 26.743980,96.782959 
	C26.479454,97.845146 26.214928,98.907333 25.380432,100.303925 
	C27.012163,100.529854 28.643383,100.948860 30.275703,100.953209 
	C62.866219,101.039787 95.456863,101.078529 128.780457,101.014656 
	C129.517410,100.953880 130.254349,100.893097 131.701385,100.771553 
	C133.495056,98.899597 134.337265,96.957352 130.692230,96.833893 
	C125.810143,96.668526 120.909691,97.044830 115.560455,97.043701 
	C115.560455,97.043701 115.087273,96.968697 114.918533,96.456985 
M202.181274,70.750099 
	C210.580322,77.262901 205.316849,86.794563 207.423096,94.683151 
	C219.997101,95.799507 219.851364,95.797089 220.054001,83.595467 
	C220.167297,76.773834 220.534866,70.066154 213.466034,65.442574 
	C219.736160,62.023293 219.682632,56.678345 220.252090,50.851715 
	C221.130371,41.865463 217.874390,35.590145 211.022919,30.555281 
	C210.152023,29.915293 209.109192,29.075506 208.140366,29.068087 
	C195.202072,28.969015 182.262787,29.001835 168.999390,29.001835 
	C168.999390,33.783955 169.066574,38.083046 168.987473,42.379444 
	C168.685577,58.777927 168.283737,75.175018 168.120331,91.574623 
	C168.109070,92.705437 169.653397,94.733284 170.632233,94.835770 
	C174.344528,95.224457 178.121826,94.992271 182.256470,94.992271 
	C182.256470,86.270988 182.256470,78.194038 182.256470,70.119171 
	C188.973007,70.119171 195.290314,70.119171 202.181274,70.750099 
M398.473083,95.000923 
	C399.907318,94.925453 401.341522,94.849976 402.745422,94.776100 
	C402.745422,72.713455 402.745422,50.997520 402.745422,29.263416 
	C398.418335,29.263416 394.351685,29.263416 389.896210,29.263416 
	C389.896210,38.254433 389.896210,46.988079 389.896210,55.757980 
	C381.099243,55.757980 372.702576,55.757980 363.920898,55.757980 
	C363.920898,46.786766 363.920898,38.050030 363.920898,29.231823 
	C359.129730,29.231823 354.729279,29.231823 350.202881,29.231823 
	C350.202881,51.181339 350.202881,72.898346 350.202881,95.000862 
	C353.511810,95.000862 356.642944,94.838928 359.749664,95.045090 
	C363.046906,95.263908 364.130280,93.943428 364.054321,90.704178 
	C363.879852,83.265343 363.999023,75.819633 363.999023,68.189850 
	C372.805084,68.189850 381.201355,68.189850 389.614868,68.189850 
	C389.614868,76.874657 389.614868,85.357727 389.614868,95.001045 
	C392.127655,95.001045 394.828827,95.001045 398.473083,95.000923 
M341.999817,81.388969 
	C343.967163,72.998581 343.967163,72.998611 335.129456,72.999344 
	C333.161499,72.999512 331.193512,72.999374 329.257111,72.999374 
	C328.707672,81.136040 326.712311,83.001282 318.963287,83.001350 
	C315.965118,83.001373 312.962341,83.107185 309.969849,82.976936 
	C305.742310,82.792931 303.175964,80.322990 303.075195,76.257538 
	C302.831726,66.436119 302.956207,56.604328 303.017548,46.777248 
	C303.041077,43.009377 305.119354,41.053082 308.875366,41.011856 
	C313.372131,40.962505 317.896484,40.701313 322.358582,41.097668 
	C325.770172,41.400711 329.234741,42.558064 328.969604,47.127460 
	C328.784882,50.311409 330.275574,51.220112 333.165344,51.031696 
	C335.487457,50.880299 337.858124,51.219845 340.145081,50.898781 
	C341.163544,50.755802 342.808441,49.550831 342.834412,48.782734 
	C342.974579,44.637962 343.361694,40.830769 339.865082,36.965443 
	C334.286102,30.798180 328.325073,27.625280 320.018494,28.939281 
	C317.580994,29.324865 314.981720,29.317705 312.541260,28.941391 
	C303.908203,27.610180 296.916931,30.089464 292.105774,37.515553 
	C290.702911,39.680882 289.242249,42.279938 289.143219,44.734051 
	C288.787537,53.547771 289.631561,62.442238 288.827789,71.196533 
	C288.010345,80.099632 290.254364,87.085297 297.698547,92.060158 
	C299.712616,93.406151 302.168213,94.759308 304.479980,94.868980 
	C311.958679,95.223740 319.464783,95.017639 326.960266,94.996552 
	C332.352997,94.981377 340.900787,87.696175 341.999817,81.388969 
M429.533051,36.976974 
	C422.513733,56.121147 415.494385,75.265320 408.261475,94.991982 
	C411.702484,94.991982 414.052246,94.742317 416.328064,95.046310 
	C420.486389,95.601761 423.106445,94.547905 424.087646,90.003860 
	C424.816559,86.628136 426.351471,83.426468 427.579773,80.001205 
	C430.928528,80.001205 434.250336,80.001022 437.572144,80.001244 
	C448.975464,80.001999 448.912842,80.025711 453.106232,91.127937 
	C453.665192,92.607826 455.118500,94.645538 456.363464,94.803558 
	C460.170349,95.286751 464.077606,94.979103 468.623352,94.979103 
	C460.390015,72.444046 452.491089,50.824409 444.601440,29.230024 
	C432.015564,28.415102 432.015564,28.415102 429.533051,36.976974 
M244.236511,80.241776 
	C251.368332,80.241776 258.500153,80.241776 265.626648,80.241776 
	C270.213776,95.593224 271.413849,96.529900 284.232544,94.446983 
	C283.907410,93.188492 283.676788,91.929581 283.257965,90.736732 
	C281.192841,84.854965 279.080597,78.989723 276.979950,73.120453 
	C272.236420,59.866856 267.313904,46.673550 262.825928,33.334019 
	C260.857513,27.483360 256.406738,29.385897 252.487701,28.966396 
	C248.795486,28.571178 247.956161,30.774681 246.923523,33.667358 
	C240.039841,52.950653 233.076385,72.207848 225.835571,91.358864 
	C224.660492,94.466805 225.697372,94.747185 228.085114,95.010017 
	C237.293579,96.023659 239.034073,94.952660 241.915985,86.348518 
	C242.521591,84.540482 243.077072,82.715668 244.236511,80.241776 
z"/>
<path fill="#FEFDFE" opacity="1.000000" stroke="none" 
	d="
M201.894440,70.434631 
	C195.290314,70.119171 188.973007,70.119171 182.256470,70.119171 
	C182.256470,78.194038 182.256470,86.270988 182.256470,94.992271 
	C178.121826,94.992271 174.344528,95.224457 170.632233,94.835770 
	C169.653397,94.733284 168.109070,92.705437 168.120331,91.574623 
	C168.283737,75.175018 168.685577,58.777927 168.987473,42.379444 
	C169.066574,38.083046 168.999390,33.783955 168.999390,29.001835 
	C182.262787,29.001835 195.202072,28.969015 208.140366,29.068087 
	C209.109192,29.075506 210.152023,29.915293 211.022919,30.555281 
	C217.874390,35.590145 221.130371,41.865463 220.252090,50.851715 
	C219.682632,56.678345 219.736160,62.023293 213.466034,65.442574 
	C220.534866,70.066154 220.167297,76.773834 220.054001,83.595467 
	C219.851364,95.797089 219.997101,95.799507 207.423096,94.683151 
	C205.316849,86.794563 210.580322,77.262901 201.894440,70.434631 
M205.999222,44.974232 
	C204.792007,43.652435 203.645584,41.260487 202.367447,41.187904 
	C195.635895,40.805649 188.871109,41.008839 182.310867,41.008839 
	C182.310867,47.051609 182.310867,52.457775 182.310867,57.999912 
	C186.449448,57.999912 190.266632,58.000980 194.083832,57.999710 
	C206.007919,57.995750 206.007919,57.995411 205.999222,44.974232 
z"/>
<path fill="#FEFEFE" opacity="1.000000" stroke="none" 
	d="
M119.893951,34.962780 
	C120.012413,33.059177 120.027008,29.512165 120.264847,29.497135 
	C124.175011,29.249985 128.133408,29.281496 132.020432,29.751387 
	C132.520020,29.811781 132.952896,32.666382 132.958481,34.228230 
	C133.023178,52.360790 133.074844,70.494400 132.898773,88.625488 
	C132.878174,90.746971 131.395676,94.694702 130.721832,94.666504 
	C126.768204,94.501053 122.126205,97.064697 118.996254,92.210693 
	C110.637718,79.248085 102.119446,66.388481 92.998489,52.471489 
	C92.998489,56.874176 92.998596,60.360241 92.998466,63.846302 
	C92.998154,72.330452 92.922180,80.815575 93.031166,89.298325 
	C93.081070,93.182053 92.170082,95.627068 87.530899,95.055771 
	C84.926117,94.734993 82.249458,94.998016 79.095863,94.998016 
	C79.095863,88.903313 79.095863,82.984329 79.490128,76.368973 
	C79.923668,74.450195 79.962944,73.227806 80.298073,71.709808 
	C80.725769,60.883736 80.891930,50.353317 80.910248,39.822639 
	C80.911438,39.139618 79.775436,38.454624 79.168427,37.770550 
	C78.718025,29.298504 82.283623,26.529779 90.666885,29.104042 
	C91.808708,29.454660 92.741348,30.927826 93.484352,32.067940 
	C101.369827,44.167946 109.194153,56.307796 117.051826,68.425964 
	C117.380135,68.932281 117.870621,69.333450 119.009148,70.568619 
	C119.009148,66.535294 119.009148,63.490608 119.517258,59.988182 
	C120.350426,54.191719 120.854332,48.855473 120.928192,43.513279 
	C120.967529,40.668423 120.262817,37.813278 119.893951,34.962780 
z"/>
<path fill="#FEFDFE" opacity="1.000000" stroke="none" 
	d="
M25.907501,95.093483 
	C22.470524,91.756538 18.923264,88.522217 15.664186,85.019730 
	C14.694263,83.977371 14.085944,82.186897 14.071554,80.731689 
	C13.948389,68.276787 13.915665,55.818916 14.097358,43.365456 
	C14.122313,41.655060 15.216803,39.779537 16.275627,38.311993 
	C17.520702,36.586304 19.520824,35.402027 20.748920,33.668072 
	C24.526249,28.334833 29.449257,28.071972 35.485867,30.457388 
	C35.913216,33.938362 35.865238,36.966373 35.481209,40.149502 
	C29.995073,41.639294 28.000626,44.291744 27.996681,49.842583 
	C27.990770,58.166504 27.979967,66.490463 27.999226,74.814339 
	C28.011547,80.138916 30.797823,82.969940 36.020172,82.996323 
	C40.015564,83.016502 44.011215,83.016891 48.006603,82.996536 
	C53.209675,82.970032 55.992016,80.121658 56.001854,74.788567 
	C56.017818,66.131706 56.022675,57.474735 55.996986,48.817917 
	C55.982525,43.944649 53.189697,41.226612 47.928951,40.896217 
	C47.757778,40.755596 47.320263,40.685745 47.213120,40.259136 
	C47.079247,36.277760 47.052521,32.722996 47.025791,29.168230 
	C57.368519,26.323092 63.312592,32.858776 69.016373,39.657494 
	C69.823364,40.619400 69.949913,42.364998 69.958351,43.750500 
	C70.029274,55.400066 69.867065,67.052681 70.081398,78.698730 
	C70.144295,82.116463 69.456856,84.734894 66.703896,86.873161 
	C65.009064,88.189583 63.588432,89.867134 62.089230,91.425385 
	C59.912140,93.688240 57.783913,94.534470 54.198433,94.258865 
	C47.192497,93.720360 40.072479,94.666069 32.335720,94.733643 
	C30.780745,94.355499 29.889744,94.241020 28.665321,94.095367 
	C27.523767,94.407295 26.715633,94.750389 25.907501,95.093483 
z"/>
<path fill="#FEFEFE" opacity="1.000000" stroke="none" 
	d="
M398.001556,95.000984 
	C394.828827,95.001045 392.127655,95.001045 389.614868,95.001045 
	C389.614868,85.357727 389.614868,76.874657 389.614868,68.189850 
	C381.201355,68.189850 372.805084,68.189850 363.999023,68.189850 
	C363.999023,75.819633 363.879852,83.265343 364.054321,90.704178 
	C364.130280,93.943428 363.046906,95.263908 359.749664,95.045090 
	C356.642944,94.838928 353.511810,95.000862 350.202881,95.000862 
	C350.202881,72.898346 350.202881,51.181339 350.202881,29.231823 
	C354.729279,29.231823 359.129730,29.231823 363.920898,29.231823 
	C363.920898,38.050030 363.920898,46.786766 363.920898,55.757980 
	C372.702576,55.757980 381.099243,55.757980 389.896210,55.757980 
	C389.896210,46.988079 389.896210,38.254433 389.896210,29.263416 
	C394.351685,29.263416 398.418335,29.263416 402.745422,29.263416 
	C402.745422,50.997520 402.745422,72.713455 402.745422,94.776100 
	C401.341522,94.849976 399.907318,94.925453 398.001556,95.000984 
z"/>
<path fill="#FEFDFE" opacity="1.000000" stroke="none" 
	d="
M341.997620,81.807785 
	C340.900787,87.696175 332.352997,94.981377 326.960266,94.996552 
	C319.464783,95.017639 311.958679,95.223740 304.479980,94.868980 
	C302.168213,94.759308 299.712616,93.406151 297.698547,92.060158 
	C290.254364,87.085297 288.010345,80.099632 288.827789,71.196533 
	C289.631561,62.442238 288.787537,53.547771 289.143219,44.734051 
	C289.242249,42.279938 290.702911,39.680882 292.105774,37.515553 
	C296.916931,30.089464 303.908203,27.610180 312.541260,28.941391 
	C314.981720,29.317705 317.580994,29.324865 320.018494,28.939281 
	C328.325073,27.625280 334.286102,30.798180 339.865082,36.965443 
	C343.361694,40.830769 342.974579,44.637962 342.834412,48.782734 
	C342.808441,49.550831 341.163544,50.755802 340.145081,50.898781 
	C337.858124,51.219845 335.487457,50.880299 333.165344,51.031696 
	C330.275574,51.220112 328.784882,50.311409 328.969604,47.127460 
	C329.234741,42.558064 325.770172,41.400711 322.358582,41.097668 
	C317.896484,40.701313 313.372131,40.962505 308.875366,41.011856 
	C305.119354,41.053082 303.041077,43.009377 303.017548,46.777248 
	C302.956207,56.604328 302.831726,66.436119 303.075195,76.257538 
	C303.175964,80.322990 305.742310,82.792931 309.969849,82.976936 
	C312.962341,83.107185 315.965118,83.001373 318.963287,83.001350 
	C326.712311,83.001282 328.707672,81.136040 329.257111,72.999374 
	C331.193512,72.999374 333.161499,72.999512 335.129456,72.999344 
	C343.967163,72.998611 343.967163,72.998581 341.997620,81.807785 
z"/>
<path fill="#FEFDFD" opacity="1.000000" stroke="none" 
	d="
M429.750519,36.629230 
	C432.015564,28.415102 432.015564,28.415102 444.601440,29.230024 
	C452.491089,50.824409 460.390015,72.444046 468.623352,94.979103 
	C464.077606,94.979103 460.170349,95.286751 456.363464,94.803558 
	C455.118500,94.645538 453.665192,92.607826 453.106232,91.127937 
	C448.912842,80.025711 448.975464,80.001999 437.572144,80.001244 
	C434.250336,80.001022 430.928528,80.001205 427.579773,80.001205 
	C426.351471,83.426468 424.816559,86.628136 424.087646,90.003860 
	C423.106445,94.547905 420.486389,95.601761 416.328064,95.046310 
	C414.052246,94.742317 411.702484,94.991982 408.261475,94.991982 
	C415.494385,75.265320 422.513733,56.121147 429.750519,36.629230 
M438.033661,47.840515 
	C435.667816,54.749645 433.301971,61.658775 430.878265,68.736893 
	C436.094116,68.736893 440.957825,68.736893 446.161011,68.736893 
	C443.545502,61.359215 441.051025,54.322990 438.033661,47.840515 
z"/>
<path fill="#FEFDFD" opacity="1.000000" stroke="none" 
	d="
M243.946075,80.570183 
	C243.077072,82.715668 242.521591,84.540482 241.915985,86.348518 
	C239.034073,94.952660 237.293579,96.023659 228.085114,95.010017 
	C225.697372,94.747185 224.660492,94.466805 225.835571,91.358864 
	C233.076385,72.207848 240.039841,52.950653 246.923523,33.667358 
	C247.956161,30.774681 248.795486,28.571178 252.487701,28.966396 
	C256.406738,29.385897 260.857513,27.483360 262.825928,33.334019 
	C267.313904,46.673550 272.236420,59.866856 276.979950,73.120453 
	C279.080597,78.989723 281.192841,84.854965 283.257965,90.736732 
	C283.676788,91.929581 283.907410,93.188492 284.232544,94.446983 
	C271.413849,96.529900 270.213776,95.593224 265.626648,80.241776 
	C258.500153,80.241776 251.368332,80.241776 243.946075,80.570183 
M257.468109,54.976341 
	C256.565186,52.442337 255.662292,49.908329 254.541107,46.761745 
	C251.947678,54.650753 249.624344,61.718124 247.326035,68.709412 
	C252.400299,68.709412 257.141296,68.709412 262.406982,68.709412 
	C260.831390,64.065605 259.397766,59.840290 257.468109,54.976341 
z"/>
<path fill="#0AB2F6" opacity="1.000000" stroke="none" 
	d="
M112.992607,97.183342 
	C112.992607,97.183342 113.443588,97.040718 113.971481,97.015503 
	C114.695335,96.983093 114.891304,96.975891 115.087273,96.968697 
	C115.087273,96.968697 115.560455,97.043701 116.111694,97.370140 
	C120.278969,97.798561 123.924774,97.668793 127.495003,98.127426 
	C128.755463,98.289352 129.831223,99.889053 130.991302,100.832321 
	C130.254349,100.893097 129.517410,100.953880 128.132492,100.752625 
	C125.521507,100.325081 123.558670,100.017593 121.595467,100.015251 
	C89.713799,99.977135 57.832100,99.977699 25.950403,99.969521 
	C26.214928,98.907333 26.479454,97.845146 27.239330,96.412056 
	C28.474918,95.965858 29.215158,95.890564 30.289936,95.867126 
	C31.072193,95.878281 31.519913,95.837593 31.967632,95.796906 
	C32.446445,96.151520 32.925259,96.506134 34.119095,96.943077 
	C43.595856,97.005432 52.357586,96.985466 61.119320,96.965500 
	C71.108292,96.984291 81.097260,97.003090 91.869751,97.354317 
	C99.433044,97.518944 106.212830,97.351143 112.992607,97.183342 
z"/>
<path fill="#07B2FB" opacity="1.000000" stroke="none" 
	d="
M46.702217,29.007038 
	C47.052521,32.722996 47.079247,36.277760 47.119576,40.669395 
	C47.039783,42.620693 46.946384,43.735123 46.506584,45.069942 
	C42.474091,45.290333 38.788006,45.290333 35.221291,45.290333 
	C35.499031,42.822258 35.658146,41.408321 35.817261,39.994385 
	C35.865238,36.966373 35.913216,33.938362 35.899544,30.460426 
	C36.532604,28.355757 37.091198,25.377583 37.947041,25.289560 
	C40.732353,25.003099 43.632500,25.739079 46.458122,26.249454 
	C46.583851,26.272165 46.411922,27.942801 46.702217,29.007038 
z"/>
<path fill="#25A0E1" opacity="1.000000" stroke="none" 
	d="
M25.665417,100.136719 
	C57.832100,99.977699 89.713799,99.977135 121.595467,100.015251 
	C123.558670,100.017593 125.521507,100.325081 127.766006,100.808762 
	C95.456863,101.078529 62.866219,101.039787 30.275703,100.953209 
	C28.643383,100.948860 27.012163,100.529854 25.665417,100.136719 
z"/>
<path fill="#88CDFD" opacity="1.000000" stroke="none" 
	d="
M60.884350,96.589706 
	C52.357586,96.985466 43.595856,97.005432 34.420567,96.948853 
	C38.793205,96.578079 43.575981,96.158073 48.366631,96.028046 
	C52.456188,95.917046 56.554783,96.139153 60.884350,96.589706 
z"/>
<path fill="#F6F3F6" opacity="1.000000" stroke="none" 
	d="
M119.513794,35.178352 
	C120.262817,37.813278 120.967529,40.668423 120.928192,43.513279 
	C120.854332,48.855473 120.350426,54.191719 119.588791,59.576981 
	C119.146034,51.546986 119.139839,43.470455 119.513794,35.178352 
z"/>
<path fill="#FFF0FF" opacity="1.000000" stroke="none" 
	d="
M80.002220,72.005409 
	C79.962944,73.227806 79.923668,74.450195 79.828735,76.127289 
	C79.515244,74.208992 79.053177,71.837578 79.035027,69.462753 
	C78.957840,59.360752 79.012154,49.257740 79.330940,39.288372 
	C79.763031,50.282902 79.882629,61.144154 80.002220,72.005409 
z"/>
<path fill="#F6F5F3" opacity="1.000000" stroke="none" 
	d="
M80.298073,71.709808 
	C79.882629,61.144154 79.763031,50.282902 79.498215,38.714294 
	C79.353004,38.006947 79.249390,37.832630 79.208908,37.801590 
	C79.775436,38.454624 80.911438,39.139618 80.910248,39.822639 
	C80.891930,50.353317 80.725769,60.883736 80.298073,71.709808 
z"/>
<path fill="#20ABE6" opacity="1.000000" stroke="none" 
	d="
M112.654930,97.013367 
	C106.212830,97.351143 99.433044,97.518944 92.334854,97.423645 
	C98.783371,97.054817 105.550316,96.949097 112.654930,97.013367 
z"/>
<path fill="#20ABE6" opacity="1.000000" stroke="none" 
	d="
M131.346344,100.801941 
	C129.831223,99.889053 128.755463,98.289352 127.495003,98.127426 
	C123.924774,97.668793 120.278969,97.798561 116.340027,97.442566 
	C120.909691,97.044830 125.810143,96.668526 130.692230,96.833893 
	C134.337265,96.957352 133.495056,98.899597 131.346344,100.801941 
z"/>
<path fill="#8EAEC6" opacity="1.000000" stroke="none" 
	d="
M29.955399,95.815277 
	C29.215158,95.890564 28.474918,95.965858 27.367107,96.093964 
	C26.705765,95.957832 26.411991,95.768890 26.012859,95.336716 
	C26.715633,94.750389 27.523767,94.407295 28.772697,94.313110 
	C29.460796,94.979774 29.708096,95.397522 29.955399,95.815277 
z"/>
<path fill="#9ECDD8" opacity="1.000000" stroke="none" 
	d="
M30.289936,95.867126 
	C29.708096,95.397522 29.460796,94.979774 29.106119,94.344284 
	C29.889744,94.241020 30.780745,94.355499 31.873913,94.750244 
	C32.076080,95.030510 32.034248,95.416199 32.000938,95.606552 
	C31.519913,95.837593 31.072193,95.878281 30.289936,95.867126 
z"/>
<path fill="#20ABE6" opacity="1.000000" stroke="none" 
	d="
M115.002899,96.712845 
	C114.891304,96.975891 114.695335,96.983093 114.205154,96.979118 
	C114.246811,96.797623 114.582672,96.627304 115.002899,96.712845 
z"/>
<path fill="#000000" opacity="1.000000" stroke="none" 
	d="
M205.999786,45.428703 
	C206.007919,57.995411 206.007919,57.995750 194.083832,57.999710 
	C190.266632,58.000980 186.449448,57.999912 182.310867,57.999912 
	C182.310867,52.457775 182.310867,47.051609 182.310867,41.008839 
	C188.871109,41.008839 195.635895,40.805649 202.367447,41.187904 
	C203.645584,41.260487 204.792007,43.652435 205.999786,45.428703 
z"/>
<path fill="#000000" opacity="1.000000" stroke="none" 
	d="
M35.481209,40.149502 
	C35.658146,41.408321 35.499031,42.822258 35.221291,45.290333 
	C38.788006,45.290333 42.474091,45.290333 46.898197,45.055763 
	C47.790852,43.559742 47.945488,42.298290 48.100124,41.036839 
	C53.189697,41.226612 55.982525,43.944649 55.996986,48.817917 
	C56.022675,57.474735 56.017818,66.131706 56.001854,74.788567 
	C55.992016,80.121658 53.209675,82.970032 48.006603,82.996536 
	C44.011215,83.016891 40.015564,83.016502 36.020172,82.996323 
	C30.797823,82.969940 28.011547,80.138916 27.999226,74.814339 
	C27.979967,66.490463 27.990770,58.166504 27.996681,49.842583 
	C28.000626,44.291744 29.995073,41.639294 35.481209,40.149502 
z"/>
<path fill="#6EB3F2" opacity="1.000000" stroke="none" 
	d="
M47.928951,40.896217 
	C47.945488,42.298290 47.790852,43.559742 47.244602,44.835373 
	C46.946384,43.735123 47.039783,42.620693 47.226723,41.096004 
	C47.320263,40.685745 47.757778,40.755596 47.928951,40.896217 
z"/>
<path fill="#000000" opacity="1.000000" stroke="none" 
	d="
M438.295105,47.563641 
	C441.051025,54.322990 443.545502,61.359215 446.161011,68.736893 
	C440.957825,68.736893 436.094116,68.736893 430.878265,68.736893 
	C433.301971,61.658775 435.667816,54.749645 438.295105,47.563641 
z"/>
<path fill="#000000" opacity="1.000000" stroke="none" 
	d="
M257.716125,55.295658 
	C259.397766,59.840290 260.831390,64.065605 262.406982,68.709412 
	C257.141296,68.709412 252.400299,68.709412 247.326035,68.709412 
	C249.624344,61.718124 251.947678,54.650753 254.541107,46.761745 
	C255.662292,49.908329 256.565186,52.442337 257.716125,55.295658 
z"/>
</svg>